<?xml version="1.0" encoding="UTF-8"?>
<!-- Generated by Pixelmator Pro 3.2.3 -->
<svg width="44" height="44" viewBox="0 0 44 44" xmlns="http://www.w3.org/2000/svg" xmlns:xlink="http://www.w3.org/1999/xlink">
    <path id="-" fill="#dc2b20" fill-rule="evenodd" stroke="none" d="M 21.650057 9.455177 L 22.003925 9.813274 L 22.358027 9.457405 C 26.853777 4.964561 34.140472 4.966919 38.63332 9.462669 C 43.12616 13.958422 43.123802 21.245117 38.628052 25.737961 L 25.176285 39.179024 C 24.332136 40.02264 23.187429 40.496361 21.993999 40.495975 C 20.800568 40.49559 19.656168 40.021126 18.812565 39.176964 L 5.369499 25.7272 C 0.876656 21.231447 0.879013 13.944752 5.374765 9.451908 C 9.870517 4.959064 17.157213 4.961422 21.650057 9.457172 M 19.527464 11.576397 C 16.205585 8.252918 10.818462 8.251625 7.494987 11.573505 C 4.171511 14.89538 4.170216 20.282505 7.492093 23.605978 L 20.935158 37.057743 C 21.520576 37.642815 22.469267 37.643124 23.055065 37.05843 L 36.506828 23.615366 C 39.8041 20.289572 39.793415 14.924309 36.482925 11.611675 C 33.172428 8.299034 27.807173 8.284882 24.479246 11.579998 L 23.062849 12.995478 C 22.477051 13.580172 21.528362 13.579865 20.942944 12.994793 Z"/>
</svg>
