<?xml version="1.0" encoding="UTF-8"?>
<!-- Generated by Pixelmator Pro 3.2.3 -->
<svg width="800" height="800" viewBox="0 0 800 800" xmlns="http://www.w3.org/2000/svg" xmlns:xlink="http://www.w3.org/1999/xlink">
    <linearGradient id="linearGradient1" x1="403.933655" y1="799.671067" x2="403.933655" y2="-0.442894" gradientUnits="userSpaceOnUse">
        <stop offset="0" stop-color="#1c70f2" stop-opacity="1"/>
        <stop offset="1" stop-color="#1ac9fb" stop-opacity="1"/>
    </linearGradient>
    <path id="path1" fill="url(#linearGradient1)" stroke="none" d="M 746.699951 160.599976 L 415.799988 160.599976 L 364.233337 0 L 53.299999 0 C 24 0 0.066667 23.966675 0.066667 53.299988 L 0.066667 595.800049 C 0.066667 625.066711 24.066668 649.033325 53.299999 649.033325 L 386.633331 649.033325 L 435.733307 800 L 746.666626 800 C 775.93335 800 799.899963 776.433289 799.899963 747.599976 L 799.899963 213 C 799.899963 184.166687 775.900024 160.599976 746.666626 160.599976 Z M 224.700012 449.93335 C 155.699997 449.93335 99.699997 393.933319 99.699997 324.93335 C 99.699997 255.93335 155.699997 199.93335 224.700012 199.93335 C 258.433319 199.93335 286.699982 212.43335 308.43335 232.466675 L 275.433319 264.200012 C 261.650024 251.436096 243.483643 244.465515 224.700012 244.733337 C 181.199997 244.733337 145.933319 280.733337 145.933319 325.033356 C 145.933319 369.333344 181.199997 405.333344 224.666656 405.333344 C 274.899994 405.333344 295.666656 369.333344 297.666687 345.066681 L 224.733337 345 L 224.733337 302.200012 L 341.733337 302.200012 C 343.399994 309.866638 344.733337 317.433319 344.733337 327.666656 C 344.733337 399.233337 296.933319 449.966644 224.666656 449.966644 Z M 783.266663 747.599976 C 783.266663 767.266663 766.866699 783.333313 746.699951 783.333313 L 450.866669 783.333313 L 572.5 649 L 572.666687 649 L 548 572.266663 L 548.199951 572.099976 C 548.199951 572.099976 567.133301 555.833313 590.766663 530.766663 C 614.5 556.466675 645.100037 587.400024 684.700012 624.266724 L 710.400024 598.533325 C 668 560.06665 636.93335 529.533325 614.066711 505.033325 C 644.700012 468.800018 675.799988 423.200012 682.366699 381.466675 L 750.166626 381.466675 L 750.166626 381.533325 L 750.233337 381.533325 L 750.233337 350.199982 L 599.166687 350.199982 L 599.166687 299.533325 L 550.133301 299.533325 L 550.133301 350.199982 L 476.666687 350.199982 L 420.93335 176.533325 L 421.133331 177.266663 L 746.699951 177.266663 C 766.866699 177.266663 783.266663 193.266663 783.266663 213 L 783.266663 747.599976 Z M 567.133301 503.899994 C 549.266663 522.166626 535.699951 533 535.699951 533 L 535.43335 533.133362 L 486.766663 381.533325 L 645.566711 381.533325 C 635.333313 417.666656 612.633301 451.799988 590.533325 478.333344 C 551.333374 431.93335 551.199951 416.866638 551.199951 416.866638 L 510.466675 416.866638 C 510.466675 416.866638 512.133362 439.466675 567.133301 503.866669 Z"/>
</svg>
